<svg width="59" height="28" viewBox="0 0 59 28" fill="none" xmlns="http://www.w3.org/2000/svg">
<path d="M31.1016 13.0781C31.0234 13.3594 30.8906 13.5859 30.7031 13.7578C30.5312 13.9141 30.3281 14.0547 30.0938 14.1797C29.875 14.2891 29.6484 14.4062 29.4141 14.5312C29.1797 14.6406 28.9766 14.7891 28.8047 14.9766L28.6641 14.8125L28.6172 14.8359C28.3984 14.9141 28.2344 14.9922 28.125 15.0703C28.0156 15.1484 27.8984 15.2969 27.7734 15.5156C27.6484 15.7344 27.5312 15.8672 27.4219 15.9141C27.3281 15.9453 27.1484 15.9531 26.8828 15.9375C26.7109 15.9375 26.5625 15.9688 26.4375 16.0312C26.3125 16.0781 26.1953 16.1484 26.0859 16.2422C25.9766 16.3203 25.8672 16.4141 25.7578 16.5234C25.6641 16.6172 25.5469 16.6953 25.4062 16.7578C25.2812 16.7109 25.1406 16.6875 24.9844 16.6875C24.8438 16.6719 24.7109 16.6484 24.5859 16.6172C24.5078 16.6953 24.4141 16.7734 24.3047 16.8516C24.2109 16.9141 24.125 16.9844 24.0469 17.0625C23.9844 17 23.9141 16.9766 23.8359 16.9922C23.7734 17.0078 23.7031 17.0312 23.625 17.0625C23.5625 17.0938 23.5078 17.1094 23.4609 17.1094C23.4297 17.0938 23.375 17.0938 23.2969 17.1094C23.1094 17.1562 22.9844 17.2344 22.9219 17.3438C22.875 17.4375 22.8438 17.5547 22.8281 17.6953C22.8281 17.8203 22.8281 17.9453 22.8281 18.0703C22.8281 18.1953 22.7812 18.2891 22.6875 18.3516H22.6641V18.375C22.5547 18.6875 22.375 18.9844 22.125 19.2656C21.875 19.5312 21.6484 19.8125 21.4453 20.1094C21.2422 20.3906 21.1172 20.6875 21.0703 21C21.0234 21.2969 21.1484 21.6328 21.4453 22.0078V22.0312H21.4688C21.7344 22.2188 21.9062 22.4688 21.9844 22.7812C22.0781 23.0781 22.1641 23.375 22.2422 23.6719L22.2656 23.6953C22.5469 23.9141 22.8047 24.1406 23.0391 24.375C23.2734 24.6094 23.5078 24.8594 23.7422 25.125C24.0859 25.5312 24.4297 25.8828 24.7734 26.1797C25.1172 26.4922 25.5469 26.7344 26.0625 26.9062C26.0312 27.0312 26.0156 27.1562 26.0156 27.2812C26.0312 27.4062 26.0312 27.5312 26.0156 27.6562C25.8281 27.6875 25.6484 27.6797 25.4766 27.6328C25.3203 27.6016 25.1641 27.5547 25.0078 27.4922C24.8516 27.4453 24.6953 27.3906 24.5391 27.3281C24.3828 27.2656 24.2109 27.2266 24.0234 27.2109C23.6953 26.8047 23.3359 26.4531 22.9453 26.1562C22.5703 25.8594 22.1875 25.5312 21.7969 25.1719C21.75 24.875 21.6641 24.625 21.5391 24.4219C21.4141 24.2188 21.2578 24 21.0703 23.7656C20.9922 23.6719 20.9141 23.5625 20.8359 23.4375C20.7734 23.3125 20.6953 23.2031 20.6016 23.1094C20.5078 23.0312 20.3906 22.9141 20.25 22.7578C20.125 22.6016 20.0625 22.4609 20.0625 22.3359C20.0625 22.1953 20.0781 22.0625 20.1094 21.9375C20.1406 21.7969 20.1562 21.6562 20.1562 21.5156C20.1562 21.3125 20.1094 21.1562 20.0156 21.0469C19.9219 20.9219 19.7891 20.8203 19.6172 20.7422L19.5703 20.7188L19.5469 20.7422C19.3281 20.8984 19.1719 21.0625 19.0781 21.2344C18.9844 21.4062 18.8828 21.6172 18.7734 21.8672C18.6797 22.0859 18.5859 22.2812 18.4922 22.4531C18.3984 22.625 18.2812 22.7656 18.1406 22.875C18.0156 22.9844 17.8594 23.0469 17.6719 23.0625C17.4844 23.0781 17.2578 23.0391 16.9922 22.9453H16.9453C16.8672 23.0234 16.7812 23.1016 16.6875 23.1797C16.6094 23.2578 16.5234 23.3359 16.4297 23.4141C16.3047 23.2734 16.1484 23.2266 15.9609 23.2734C15.7734 23.3203 15.6016 23.375 15.4453 23.4375V23.4609C15.3516 23.6484 15.2031 23.75 15 23.7656C14.7969 23.7812 14.5625 23.7812 14.2969 23.7656C14.0469 23.7344 13.7891 23.7109 13.5234 23.6953C13.2578 23.6797 13.0156 23.7266 12.7969 23.8359C12.6719 23.7266 12.5469 23.6719 12.4219 23.6719C12.3125 23.6562 12.1953 23.6719 12.0703 23.7188C11.9609 23.75 11.8438 23.7969 11.7188 23.8594C11.5938 23.9219 11.4688 23.9609 11.3438 23.9766C11.1719 23.8828 10.9297 23.7812 10.6172 23.6719C10.3203 23.5625 10.0078 23.4531 9.67969 23.3438C9.35156 23.2188 9.04688 23.0938 8.76562 22.9688C8.48438 22.8438 8.28906 22.7188 8.17969 22.5938H8.15625C7.8125 22.5938 7.52344 22.5469 7.28906 22.4531C7.07031 22.3438 6.82031 22.1875 6.53906 21.9844C6.33594 21.8594 6.14844 21.75 5.97656 21.6562C5.80469 21.5469 5.59375 21.4531 5.34375 21.375L5.29688 21.3516C5.21875 21.5078 5.14062 21.5547 5.0625 21.4922C4.98438 21.4297 4.89062 21.3516 4.78125 21.2578C4.85938 21.1797 4.89844 21.0938 4.89844 21C4.91406 20.8906 4.92188 20.7891 4.92188 20.6953C4.73438 20.5234 4.5625 20.4141 4.40625 20.3672C4.26562 20.3203 4.125 20.2812 3.98438 20.25C3.85938 20.2031 3.74219 20.1484 3.63281 20.0859C3.52344 20.0234 3.41406 19.8906 3.30469 19.6875H3.28125C3.04688 19.625 2.89844 19.4922 2.83594 19.2891C2.75781 19.0703 2.69531 18.8516 2.64844 18.6328C2.60156 18.4141 2.52344 18.2109 2.41406 18.0234C2.30469 17.8203 2.09375 17.6953 1.78125 17.6484C1.65625 17.3984 1.51562 17.1484 1.35938 16.8984C1.1875 16.6328 1.05469 16.375 0.960938 16.125C0.867188 15.8594 0.828125 15.5938 0.84375 15.3281C0.859375 15.0625 0.976562 14.7969 1.19531 14.5312C1.42969 14.4062 1.66406 14.4141 1.89844 14.5547C2.13281 14.6797 2.35938 14.8672 2.57812 15.1172C2.79688 15.3516 3 15.6016 3.1875 15.8672C3.375 16.1328 3.55469 16.3203 3.72656 16.4297H3.75C4.15625 16.5547 4.5625 16.7188 4.96875 16.9219C5.39062 17.125 5.77344 17.3438 6.11719 17.5781C6.22656 17.6562 6.32812 17.7266 6.42188 17.7891C6.51562 17.8516 6.60938 17.9219 6.70312 18C6.71875 18 6.73438 18.0078 6.75 18.0234L6.79688 18C7.03125 17.8906 7.24219 17.8516 7.42969 17.8828C7.61719 17.8984 7.78906 17.9453 7.94531 18.0234C8.10156 18.0859 8.25 18.1562 8.39062 18.2344C8.54688 18.2969 8.71094 18.3125 8.88281 18.2812C9.05469 18.4375 9.23438 18.5156 9.42188 18.5156C9.60938 18.5 9.78906 18.4688 9.96094 18.4219C10.1484 18.375 10.3281 18.3516 10.5 18.3516C10.6719 18.3359 10.8359 18.3984 10.9922 18.5391V18.5625C11.3984 18.6094 11.7344 18.625 12 18.6094C12.2656 18.5938 12.5469 18.4297 12.8438 18.1172L13.0078 18.3047C13.1797 18.1953 13.3672 18.125 13.5703 18.0938C13.7734 18.0625 13.9766 18.0391 14.1797 18.0234C14.3984 18.0078 14.6094 17.9688 14.8125 17.9062C15.0156 17.8438 15.2031 17.7188 15.375 17.5312C15.4531 17.6094 15.5469 17.6562 15.6562 17.6719C15.7656 17.6875 15.8672 17.6953 15.9609 17.6953C15.9922 17.6641 16.0156 17.6484 16.0312 17.6484C16.0625 17.6328 16.0859 17.6094 16.1016 17.5781C16.1641 17.6719 16.2344 17.7188 16.3125 17.7188C16.3906 17.7188 16.4688 17.7031 16.5469 17.6719C16.6406 17.625 16.7266 17.5781 16.8047 17.5312C16.8828 17.4688 16.9453 17.4219 16.9922 17.3906C17.0859 17.5 17.1719 17.5625 17.25 17.5781C17.3438 17.5781 17.4297 17.5625 17.5078 17.5312C17.6016 17.4844 17.6953 17.4453 17.7891 17.4141C17.8828 17.3672 17.9766 17.3594 18.0703 17.3906L18.0938 17.4141L18.9844 17.2734C18.8906 17.0234 18.8438 16.7344 18.8438 16.4062C18.8438 16.0781 18.9531 15.8125 19.1719 15.6094C19.1719 15.5938 19.1484 15.5469 19.1016 15.4688C19.0703 15.375 19.0312 15.2891 18.9844 15.2109C18.9531 15.1172 18.9219 15.0391 18.8906 14.9766C18.8594 14.8984 18.8438 14.8516 18.8438 14.8359C18.875 14.7109 18.8984 14.5781 18.9141 14.4375C18.9297 14.2969 18.9531 14.1641 18.9844 14.0391C19.0312 13.7578 19.0625 13.4766 19.0781 13.1953C19.1094 12.8984 19.1328 12.6016 19.1484 12.3047C19.1797 11.8516 19.1875 11.4141 19.1719 10.9922C19.1719 10.5547 19.1875 10.1094 19.2188 9.65625C19.2344 9.40625 19.3047 9.14062 19.4297 8.85938C19.5703 8.57812 19.7109 8.28906 19.8516 7.99219C20.0078 7.67969 20.1484 7.35938 20.2734 7.03125C20.3984 6.6875 20.4609 6.33594 20.4609 5.97656C20.5547 5.88281 20.6562 5.79688 20.7656 5.71875C20.875 5.64062 20.9688 5.5625 21.0469 5.48438C21.1406 5.39062 21.2031 5.28906 21.2344 5.17969C21.2812 5.05469 21.2812 4.91406 21.2344 4.75781C21.6406 4.50781 21.9766 4.25 22.2422 3.98438C22.5234 3.70312 22.7422 3.33594 22.8984 2.88281C23.1797 2.91406 23.4141 2.91406 23.6016 2.88281C23.7891 2.83594 24 2.80469 24.2344 2.78906C24.4688 3.22656 24.7266 3.67969 25.0078 4.14844C25.2891 4.61719 25.4609 5.09375 25.5234 5.57812C25.3984 5.64062 25.3281 5.74219 25.3125 5.88281C25.3125 6.02344 25.3125 6.15625 25.3125 6.28125L25.2891 6.32812C25.5391 6.57812 25.7578 6.82031 25.9453 7.05469C25.5703 7.30469 25.3359 7.60938 25.2422 7.96875C25.1484 8.32812 25.25 8.6875 25.5469 9.04688C25.5156 9.34375 25.4531 9.64062 25.3594 9.9375C25.2656 10.2188 25.1797 10.5078 25.1016 10.8047L24.2344 14.2031C24.3125 14.2656 24.3281 14.3828 24.2812 14.5547C24.2344 14.7109 24.1641 14.8828 24.0703 15.0703C23.9766 15.2578 23.875 15.4375 23.7656 15.6094C23.6562 15.7656 23.5781 15.875 23.5312 15.9375L23.625 16.0547C23.9375 15.8828 24.2578 15.7109 24.5859 15.5391C24.9297 15.3516 25.2656 15.1797 25.5938 15.0234C26 14.8359 26.4062 14.6406 26.8125 14.4375C27.2188 14.2344 27.6016 14 27.9609 13.7344C28.1484 13.875 28.2891 13.9141 28.3828 13.8516C28.4766 13.7734 28.5625 13.6797 28.6406 13.5703C28.7344 13.4609 28.8359 13.375 28.9453 13.3125C29.0703 13.2344 29.2422 13.2734 29.4609 13.4297C29.4766 13.4141 29.4844 13.3906 29.4844 13.3594C29.6562 13.0312 29.8984 12.875 30.2109 12.8906C30.5391 12.9062 30.8359 12.9688 31.1016 13.0781ZM23.8594 6.39844C23.75 6.30469 23.6875 6.17188 23.6719 6C23.6719 5.82812 23.6562 5.66406 23.625 5.50781C23.6094 5.33594 23.5547 5.1875 23.4609 5.0625C23.3672 4.9375 23.1719 4.875 22.875 4.875L22.8516 4.92188C22.7266 5.15625 22.5703 5.46094 22.3828 5.83594C22.2109 6.21094 22.0391 6.60156 21.8672 7.00781C21.6953 7.39844 21.5469 7.78125 21.4219 8.15625C21.2969 8.51562 21.2344 8.8125 21.2344 9.04688C21.3438 9.3125 21.3438 9.58594 21.2344 9.86719C21.125 10.1328 21 10.4141 20.8594 10.7109C20.7188 10.9922 20.6094 11.2891 20.5312 11.6016C20.4688 11.9141 20.5312 12.2422 20.7188 12.5859C20.4531 12.9297 20.3125 13.2578 20.2969 13.5703C20.2969 13.8828 20.3438 14.2031 20.4375 14.5312C20.5312 14.8438 20.6328 15.1641 20.7422 15.4922C20.8672 15.8047 20.9297 16.1328 20.9297 16.4766C21.2734 16.3984 21.5234 16.2812 21.6797 16.125C21.8516 15.9688 21.9688 15.7969 22.0312 15.6094C22.1094 15.4062 22.1562 15.1953 22.1719 14.9766C22.1875 14.7578 22.2188 14.5547 22.2656 14.3672C22.3125 14.1641 22.3906 13.9844 22.5 13.8281C22.6094 13.6562 22.7891 13.5312 23.0391 13.4531C22.9453 13.25 22.9375 12.9609 23.0156 12.5859C23.0938 12.1953 23.1875 11.7812 23.2969 11.3438C23.4062 10.9062 23.5 10.4766 23.5781 10.0547C23.6562 9.61719 23.6562 9.25 23.5781 8.95312C23.7031 8.65625 23.7734 8.39062 23.7891 8.15625C23.8047 7.92188 23.8125 7.64844 23.8125 7.33594C23.8125 7.21094 23.8203 7.04688 23.8359 6.84375C23.8672 6.64062 23.875 6.49219 23.8594 6.39844ZM18.9141 18.9141C18.7734 18.9922 18.6172 19.0703 18.4453 19.1484C18.2734 19.2266 18.0938 19.2969 17.9062 19.3594C17.7188 19.4062 17.5312 19.4297 17.3438 19.4297C17.1562 19.4297 16.9922 19.3828 16.8516 19.2891C16.8516 19.7109 16.7734 19.9453 16.6172 19.9922C16.4766 20.0391 16.2891 20.0312 16.0547 19.9688C15.8359 19.9062 15.6016 19.8594 15.3516 19.8281C15.1016 19.7812 14.8828 19.8906 14.6953 20.1562C14.4609 20.1406 14.2109 20.1719 13.9453 20.25C13.6953 20.3281 13.4375 20.3906 13.1719 20.4375C12.9219 20.4688 12.6797 20.4609 12.4453 20.4141C12.2266 20.3672 12.0312 20.2188 11.8594 19.9688L11.7891 20.0859C11.6328 20.3359 11.4453 20.4844 11.2266 20.5312C11.0234 20.5625 10.8047 20.5703 10.5703 20.5547C10.3359 20.5234 10.1016 20.5 9.86719 20.4844C9.64844 20.4688 9.45312 20.5312 9.28125 20.6719C9.0625 20.7031 8.86719 20.6719 8.69531 20.5781C8.52344 20.4688 8.33594 20.3594 8.13281 20.25L8.01562 20.3438H7.99219C8.00781 20.3125 8.03125 20.2812 8.0625 20.25C8.01562 20.2344 7.9375 20.2109 7.82812 20.1797C7.73438 20.1484 7.65625 20.1172 7.59375 20.0859C7.46875 20.0391 7.34375 19.9922 7.21875 19.9453C7.10938 19.8984 6.99219 19.875 6.86719 19.875C6.69531 19.875 6.50781 19.8125 6.30469 19.6875C6.10156 19.5625 5.92969 19.4453 5.78906 19.3359C5.69531 19.2578 5.58594 19.1875 5.46094 19.125C5.35156 19.0625 5.23438 19.0156 5.10938 18.9844L5.01562 19.1016C5.10938 19.2891 5.21094 19.4375 5.32031 19.5469C5.44531 19.6562 5.57031 19.7578 5.69531 19.8516C5.82031 19.9453 5.95312 20.0391 6.09375 20.1328C6.23438 20.2109 6.36719 20.3125 6.49219 20.4375C6.57031 20.7031 6.74219 20.8984 7.00781 21.0234C7.27344 21.1328 7.57031 21.2266 7.89844 21.3047C8.24219 21.3672 8.58594 21.4375 8.92969 21.5156C9.27344 21.5781 9.5625 21.6953 9.79688 21.8672C9.9375 21.9609 10.1016 22.0234 10.2891 22.0547C10.4766 22.0859 10.6641 22.1172 10.8516 22.1484C11.0391 22.1641 11.2109 22.1953 11.3672 22.2422C11.5234 22.2891 11.6406 22.3906 11.7188 22.5469L12.1641 22.5703C12.1797 22.5547 12.1875 22.5391 12.1875 22.5234C12.3594 22.2891 12.5547 22.1875 12.7734 22.2188C12.9922 22.2344 13.2109 22.2812 13.4297 22.3594C13.6641 22.4219 13.8906 22.4531 14.1094 22.4531C14.3438 22.4375 14.5469 22.2734 14.7188 21.9609C14.9062 22.0234 15.1172 22.0156 15.3516 21.9375C15.5859 21.8438 15.8125 21.7422 16.0312 21.6328C16.2656 21.5234 16.4688 21.4297 16.6406 21.3516C16.8281 21.2734 16.9688 21.2656 17.0625 21.3281C17.0938 21.2656 17.1875 21.1719 17.3438 21.0469C17.5156 20.9062 17.625 20.8125 17.6719 20.7656C17.9062 20.5781 18.0781 20.4297 18.1875 20.3203C18.2969 20.1953 18.3828 20.0781 18.4453 19.9688C18.5234 19.8438 18.5859 19.7031 18.6328 19.5469C18.6953 19.3906 18.7891 19.1797 18.9141 18.9141ZM57.9844 16.8516C58 17.0391 57.9531 17.2266 57.8438 17.4141C57.7344 17.6016 57.6328 17.7656 57.5391 17.9062C57.4922 17.9531 57.3984 18.0234 57.2578 18.1172C57.1328 18.1953 56.9922 18.2734 56.8359 18.3516C56.6953 18.4297 56.5547 18.5156 56.4141 18.6094C56.2891 18.6875 56.2109 18.75 56.1797 18.7969C56.1016 18.9219 56.0078 19.0859 55.8984 19.2891C55.8047 19.4922 55.7188 19.6562 55.6406 19.7812C55.4219 20.0625 55.2031 20.2812 54.9844 20.4375C54.7812 20.5938 54.5625 20.7344 54.3281 20.8594C54.1094 20.9688 53.875 21.0781 53.625 21.1875C53.375 21.2969 53.1016 21.4531 52.8047 21.6562L52.6172 22.2422C52.2891 22.2109 52.0547 22.2266 51.9141 22.2891C51.7891 22.3359 51.6953 22.4141 51.6328 22.5234C51.5859 22.6328 51.5391 22.7578 51.4922 22.8984C51.4609 23.0391 51.3828 23.1797 51.2578 23.3203C51.1953 23.3984 51.0859 23.4766 50.9297 23.5547C50.7891 23.6328 50.6797 23.6797 50.6016 23.6953C50.4766 23.6953 50.3672 23.6875 50.2734 23.6719C50.1953 23.6562 50.125 23.6484 50.0625 23.6484C50.0156 23.6484 49.9766 23.6719 49.9453 23.7188C49.9141 23.75 49.8984 23.8281 49.8984 23.9531H49.8516C49.6797 23.9531 49.5234 23.9922 49.3828 24.0703C49.2422 24.1641 49.1016 24.25 48.9609 24.3281C48.8203 24.4062 48.6797 24.4531 48.5391 24.4688C48.3984 24.5 48.2422 24.4609 48.0703 24.3516H48.0469C48.0469 23.9766 47.9766 23.7031 47.8359 23.5312C47.7109 23.3438 47.5625 23.1797 47.3906 23.0391C47.2188 22.8828 47.0547 22.7109 46.8984 22.5234C46.7578 22.3359 46.6719 22.0547 46.6406 21.6797C46.6094 21.3203 46.6484 20.9531 46.7578 20.5781C46.8828 20.2031 46.9453 19.8359 46.9453 19.4766C46.9453 19.2578 46.9062 19.0703 46.8281 18.9141C46.75 18.7578 46.7109 18.5938 46.7109 18.4219C46.7109 18.2656 46.75 18.1328 46.8281 18.0234C46.9219 17.9141 47.0078 17.8125 47.0859 17.7188C47.1797 17.625 47.2344 17.5156 47.25 17.3906C47.2812 17.2656 47.2344 17.1094 47.1094 16.9219V16.8984C47.1094 16.7578 47.1406 16.5859 47.2031 16.3828C47.2656 16.1641 47.3125 15.9844 47.3438 15.8438C47.4375 15.4531 47.5234 15.0703 47.6016 14.6953C47.6953 14.3047 47.7734 13.9219 47.8359 13.5469C47.9297 12.9688 48.0234 12.4062 48.1172 11.8594C48.2109 11.2969 48.3516 10.7422 48.5391 10.1953L48.5625 10.1719L48.3984 9.9375H48.4688C48.6875 9.875 48.8281 9.74219 48.8906 9.53906C48.9688 9.33594 49.0156 9.11719 49.0312 8.88281C49.0469 8.64844 49.0547 8.42969 49.0547 8.22656C49.0703 8.00781 49.1406 7.85156 49.2656 7.75781C49.1875 7.67969 49.1094 7.60156 49.0312 7.52344C48.9688 7.42969 48.8984 7.34375 48.8203 7.26562C48.8047 7.28125 48.7969 7.30469 48.7969 7.33594C48.6562 7.78906 48.4375 8.17969 48.1406 8.50781C47.8594 8.82031 47.5625 9.13281 47.25 9.44531C46.9531 9.74219 46.6797 10.0703 46.4297 10.4297C46.1797 10.7734 46.0156 11.2109 45.9375 11.7422C45.6719 12.1953 45.4297 12.6641 45.2109 13.1484C45.0078 13.6328 44.7891 14.1172 44.5547 14.6016C44.3203 15.0859 44.0625 15.5547 43.7812 16.0078C43.5156 16.4453 43.1953 16.8438 42.8203 17.2031C42.8203 17.2344 42.8203 17.2734 42.8203 17.3203C42.8359 17.3672 42.8438 17.4062 42.8438 17.4375C42.8438 17.5781 42.8125 17.6953 42.75 17.7891C42.6875 17.8828 42.6172 17.9766 42.5391 18.0703C42.4609 18.1484 42.375 18.2344 42.2812 18.3281C42.1875 18.4062 42.1094 18.4922 42.0469 18.5859C42.0469 18.8359 41.9844 19.0703 41.8594 19.2891C41.7344 19.4922 41.5938 19.6875 41.4375 19.875C41.2969 20.0625 41.1641 20.25 41.0391 20.4375C40.9141 20.625 40.8516 20.8125 40.8516 21C40.8516 21.3906 40.7812 21.6875 40.6406 21.8906C40.5 22.0781 40.3281 22.2344 40.125 22.3594C39.9375 22.4688 39.7344 22.5859 39.5156 22.7109C39.3125 22.8203 39.1406 22.9844 39 23.2031V23.2266C38.9531 23.2109 38.8984 23.2188 38.8359 23.25C38.7734 23.2812 38.7031 23.2734 38.625 23.2266C38.5469 23.1953 38.4922 23.1172 38.4609 22.9922C38.4453 22.8516 38.4297 22.7031 38.4141 22.5469C38.3984 22.3906 38.3828 22.25 38.3672 22.125C38.3516 22 38.3203 21.9219 38.2734 21.8906C38.3359 21.8438 38.4219 21.6875 38.5312 21.4219C38.6406 21.1562 38.7422 20.8594 38.8359 20.5312C38.9453 20.2031 39.0391 19.8906 39.1172 19.5938C39.2109 19.2969 39.2734 19.1016 39.3047 19.0078C39.3672 18.8047 39.4219 18.6016 39.4688 18.3984C39.5312 18.1953 39.6016 17.9922 39.6797 17.7891C39.7109 17.7109 39.7422 17.625 39.7734 17.5312C39.8203 17.4219 39.8516 17.3281 39.8672 17.25C39.8828 17.125 39.8906 16.9922 39.8906 16.8516C39.9062 16.7109 39.9219 16.5703 39.9375 16.4297L39.9844 16.4062C40.1094 16.4062 40.1953 16.3516 40.2422 16.2422C40.3047 16.1172 40.3438 15.9844 40.3594 15.8438C40.375 15.6875 40.375 15.5312 40.3594 15.375C40.3594 15.2188 40.3672 15.1016 40.3828 15.0234C40.5078 14.2734 40.6719 13.5 40.875 12.7031C41.0781 11.8906 41.1797 11.1094 41.1797 10.3594V10.0078C41.1953 9.75781 41.2188 9.5 41.25 9.23438C41.2812 8.96875 41.2891 8.70312 41.2734 8.4375C41.2734 8.15625 41.2344 7.89062 41.1562 7.64062C41.0938 7.39062 40.9844 7.15625 40.8281 6.9375V6.91406C40.3281 6.91406 39.8672 7.07031 39.4453 7.38281C39.0234 7.67969 38.6328 8.05469 38.2734 8.50781C37.9297 8.94531 37.625 9.41406 37.3594 9.91406C37.0938 10.3984 36.875 10.8281 36.7031 11.2031L36.6562 11.25L36.5156 11.0391L36.4922 11.0625C36.2266 11.25 36.0391 11.4531 35.9297 11.6719C35.8359 11.875 35.7422 12.125 35.6484 12.4219C35.5547 12.7344 35.4375 13.0312 35.2969 13.3125C35.1719 13.5938 34.9531 13.7969 34.6406 13.9219L34.6172 13.9453C34.6172 14.3047 34.5625 14.5781 34.4531 14.7656C34.3438 14.9375 34.2188 15.0938 34.0781 15.2344C33.9531 15.375 33.8359 15.5391 33.7266 15.7266C33.6172 15.8984 33.5625 16.1719 33.5625 16.5469L33.5391 16.5703C33.2266 16.8047 33.0078 17.0547 32.8828 17.3203C32.7578 17.5859 32.6328 17.8906 32.5078 18.2344C32.3984 18.5 32.2969 18.7578 32.2031 19.0078C32.1094 19.2422 31.9688 19.4609 31.7812 19.6641L31.8047 19.7109C31.8984 19.7578 31.9297 19.8516 31.8984 19.9922C31.8828 20.1172 31.8828 20.2188 31.8984 20.2969C31.7422 20.5625 31.5859 20.8125 31.4297 21.0469C31.2734 21.2656 31.1328 21.4922 31.0078 21.7266C30.8984 21.9453 30.8047 22.1797 30.7266 22.4297C30.6484 22.6797 30.6094 22.9688 30.6094 23.2969V23.3203H30.5625C30.2969 23.3516 30.1094 23.4531 30 23.625C29.8906 23.7812 29.8047 23.9688 29.7422 24.1875C29.6953 24.4062 29.6641 24.625 29.6484 24.8438C29.6328 25.0625 29.5859 25.2344 29.5078 25.3594C29.4453 25.4844 29.3359 25.5391 29.1797 25.5234C29.0234 25.5234 28.7891 25.3984 28.4766 25.1484L27.8438 24.6797C28.0156 24.3047 28.1797 23.9297 28.3359 23.5547C28.4766 23.1641 28.6016 22.7656 28.7109 22.3594C28.8203 21.9531 28.9375 21.5547 29.0625 21.1641C29.1875 20.7734 29.375 20.3984 29.625 20.0391V20.0156C29.625 19.9531 29.6406 19.8516 29.6719 19.7109C29.7188 19.5547 29.7656 19.3906 29.8125 19.2188C29.8594 19.0469 29.9062 18.8906 29.9531 18.75C30.0156 18.5938 30.0625 18.4766 30.0938 18.3984C30.2188 18.1328 30.3281 17.875 30.4219 17.625C30.5312 17.375 30.5859 17.0938 30.5859 16.7812C30.7266 16.5625 30.8359 16.3281 30.9141 16.0781C30.9922 15.8125 31.0625 15.5469 31.125 15.2812C31.2031 15.0156 31.2891 14.7578 31.3828 14.5078C31.4922 14.2578 31.6406 14.0312 31.8281 13.8281C31.8281 13.8125 31.8516 13.7109 31.8984 13.5234C31.9609 13.3359 32.0234 13.1328 32.0859 12.9141C32.1484 12.6953 32.2031 12.4844 32.25 12.2812C32.3125 12.0781 32.3516 11.9531 32.3672 11.9062C32.5391 11.3438 32.6797 10.8125 32.7891 10.3125C32.9141 9.79688 32.9766 9.24219 32.9766 8.64844C32.9766 8.52344 32.9688 8.39844 32.9531 8.27344C32.9375 8.13281 32.9375 8 32.9531 7.875C33.2188 7.46875 33.4453 7.02344 33.6328 6.53906C33.8203 6.05469 33.9531 5.57812 34.0312 5.10938V5.08594C33.9844 4.99219 33.9141 4.86719 33.8203 4.71094C33.7266 4.55469 33.6406 4.45312 33.5625 4.40625C33.3906 4.32812 33.2109 4.32812 33.0234 4.40625C32.8359 4.46875 32.6406 4.53125 32.4375 4.59375C32.2344 4.65625 32.0391 4.67188 31.8516 4.64062C31.6641 4.60938 31.4922 4.45312 31.3359 4.17188V4.125C31.1328 4.20312 30.9531 4.29688 30.7969 4.40625C30.6562 4.5 30.4531 4.5 30.1875 4.40625L30.1641 4.38281C30.1641 4.21094 30.1172 4.0625 30.0234 3.9375C29.9297 3.79688 29.8438 3.65625 29.7656 3.51562C29.6875 3.60938 29.5938 3.65625 29.4844 3.65625C29.375 3.65625 29.2578 3.64062 29.1328 3.60938C29.0078 3.57812 28.8906 3.53906 28.7812 3.49219C28.6562 3.42969 28.5547 3.38281 28.4766 3.35156L28.4297 3.32812C28.3828 3.125 28.2969 2.97656 28.1719 2.88281C28.0469 2.77344 27.9141 2.67969 27.7734 2.60156C27.6328 2.52344 27.5156 2.4375 27.4219 2.34375C27.3125 2.23438 27.2578 2.07812 27.2578 1.875C27.2578 1.64062 27.3203 1.4375 27.4453 1.26562C27.5547 1.07812 27.6953 0.945313 27.8672 0.867188C28.0391 0.789062 28.2266 0.765625 28.4297 0.796875C28.6328 0.828125 28.8203 0.929687 28.9922 1.10156V1.125C29.0703 1.20312 29.1875 1.29688 29.3438 1.40625C29.5 1.51562 29.6562 1.63281 29.8125 1.75781C29.9844 1.86719 30.1484 1.96094 30.3047 2.03906C30.4766 2.11719 30.6172 2.15625 30.7266 2.15625C30.7891 2.10938 30.8438 2.10156 30.8906 2.13281C30.9531 2.14844 31 2.17969 31.0312 2.22656C31.0781 2.27344 31.125 2.32812 31.1719 2.39062C31.2188 2.4375 31.2656 2.46094 31.3125 2.46094C31.4219 2.42969 31.4922 2.35938 31.5234 2.25L31.5469 2.27344C31.6875 2.32031 31.8359 2.30469 31.9922 2.22656C32.1641 2.13281 32.3359 2.04688 32.5078 1.96875C32.6953 1.875 32.8828 1.82812 33.0703 1.82812C33.2734 1.8125 33.4688 1.90625 33.6562 2.10938C33.6875 2.0625 33.75 2.02344 33.8438 1.99219C33.9375 1.96094 34.0156 1.94531 34.0781 1.94531C34.2812 1.94531 34.4609 2.03906 34.6172 2.22656C34.9766 2.67969 35.1953 3.1875 35.2734 3.75C35.3516 4.3125 35.3906 4.86719 35.3906 5.41406V6.09375V6.11719C35.2656 6.35156 35.1562 6.58594 35.0625 6.82031C34.9844 7.05469 34.9453 7.30469 34.9453 7.57031C34.9453 7.61719 34.9453 7.67969 34.9453 7.75781C34.9609 7.83594 34.9766 7.92188 34.9922 8.01562C35.0078 8.09375 35.0156 8.17188 35.0156 8.25C35.0312 8.3125 35.0391 8.35156 35.0391 8.36719C34.9922 8.64844 34.9219 8.92969 34.8281 9.21094C34.7344 9.49219 34.6406 9.76562 34.5469 10.0312C34.375 10.5156 34.2266 11.0078 34.1016 11.5078C33.9766 11.9922 33.8984 12.4922 33.8672 13.0078C34.1797 12.5391 34.3359 12 34.3359 11.3906L34.3594 11.3672C34.75 11.0547 35.0703 10.7188 35.3203 10.3594C35.5703 9.98438 35.8125 9.58594 36.0469 9.16406C36.3125 8.69531 36.6016 8.23438 36.9141 7.78125C37.2422 7.32812 37.6719 7 38.2031 6.79688C38.375 6.625 38.5312 6.45312 38.6719 6.28125C38.8281 6.10938 39.0156 5.98438 39.2344 5.90625L39.2578 5.88281L39.3984 6.11719C39.4609 6.07031 39.5078 6.02344 39.5391 5.97656C39.5859 5.92969 39.6328 5.88281 39.6797 5.83594C39.8359 5.67969 39.9297 5.57812 39.9609 5.53125C39.9922 5.46875 40.0078 5.32812 40.0078 5.10938C40.2422 4.92188 40.4531 4.82031 40.6406 4.80469C40.8438 4.78906 41.0234 4.82812 41.1797 4.92188C41.3516 5 41.5234 5.10938 41.6953 5.25C41.8672 5.39062 42.0469 5.51562 42.2344 5.625V5.64844C42.3594 6.44531 42.4688 7.23438 42.5625 8.01562C42.6719 8.79688 42.7266 9.59375 42.7266 10.4062C42.7266 10.8281 42.7109 11.2109 42.6797 11.5547C42.6641 11.8828 42.625 12.2109 42.5625 12.5391C42.5156 12.8516 42.4453 13.1719 42.3516 13.5C42.2734 13.8281 42.1797 14.1875 42.0703 14.5781V14.6016C42.2891 14.8359 42.4844 14.9141 42.6562 14.8359C42.8438 14.7578 43.0156 14.6172 43.1719 14.4141C43.3281 14.1953 43.4688 13.9688 43.5938 13.7344C43.7344 13.4844 43.8672 13.2969 43.9922 13.1719H44.0156C44 13.0156 44.0469 12.8281 44.1562 12.6094C44.2656 12.375 44.3906 12.1406 44.5312 11.9062C44.6719 11.6719 44.7969 11.4531 44.9062 11.25C45.0156 11.0312 45.0625 10.875 45.0469 10.7812C45.3594 10.3281 45.6406 9.88281 45.8906 9.44531C46.1562 8.99219 46.3984 8.52344 46.6172 8.03906C46.6953 8.10156 46.7578 8.10156 46.8047 8.03906C46.8516 7.97656 46.8984 7.92188 46.9453 7.875H46.9688C47.0312 7.5 47.1562 7.19531 47.3438 6.96094C47.5469 6.71094 47.7656 6.49219 48 6.30469C48.25 6.10156 48.5078 5.90625 48.7734 5.71875C49.0391 5.53125 49.2812 5.3125 49.5 5.0625C49.8438 5.0625 50.1484 5.13281 50.4141 5.27344C50.6953 5.39844 50.8516 5.66406 50.8828 6.07031C50.8047 6.32031 50.7578 6.57812 50.7422 6.84375C50.7422 7.09375 50.7344 7.35156 50.7188 7.61719C50.7188 7.88281 50.7031 8.14844 50.6719 8.41406C50.6406 8.66406 50.5703 8.90625 50.4609 9.14062C50.4609 9.17188 50.4375 9.27344 50.3906 9.44531C50.3438 9.61719 50.2891 9.8125 50.2266 10.0312C50.1797 10.2344 50.125 10.4297 50.0625 10.6172C50 10.8047 49.9609 10.9219 49.9453 10.9688C49.7266 11.6406 49.5547 12.2812 49.4297 12.8906C49.3047 13.4844 49.2422 14.1484 49.2422 14.8828C49.1797 14.9453 49.1172 15.0078 49.0547 15.0703C49.0078 15.1328 48.9531 15.1875 48.8906 15.2344L48.9141 15.2578C48.9766 15.4141 49.0078 15.5547 49.0078 15.6797C49.0078 15.8516 48.9609 16.0391 48.8672 16.2422C48.7891 16.4453 48.7109 16.6484 48.6328 16.8516C48.5703 17.0391 48.5391 17.2344 48.5391 17.4375C48.5391 17.625 48.6328 17.7969 48.8203 17.9531C48.8203 18.2031 48.7812 18.4766 48.7031 18.7734C48.625 19.0547 48.5547 19.3438 48.4922 19.6406C48.4453 19.9219 48.4219 20.2031 48.4219 20.4844C48.4219 20.7656 48.5 21.0234 48.6562 21.2578L48.6797 21.2812C48.9297 21.2812 49.1172 21.2578 49.2422 21.2109C49.3672 21.1641 49.4688 21.1328 49.5469 21.1172C49.6406 21.1016 49.7422 21.1172 49.8516 21.1641C49.9609 21.1953 50.1328 21.2969 50.3672 21.4688L51.7031 20.5547C51.8906 20.4141 52.0547 20.2656 52.1953 20.1094C52.3516 19.9531 52.5078 19.8125 52.6641 19.6875C52.8203 19.5625 52.9922 19.4688 53.1797 19.4062C53.3672 19.3438 53.5938 19.3359 53.8594 19.3828L53.8828 19.3359C54.1016 19.0234 54.375 18.7578 54.7031 18.5391C55.0469 18.3203 55.4062 18.125 55.7812 17.9531C56.1562 17.7656 56.5391 17.5938 56.9297 17.4375C57.3203 17.2656 57.6719 17.0703 57.9844 16.8516Z" fill="white"/>
</svg>
