<svg width="370" height="227" viewBox="0 0 370 227" fill="none" xmlns="http://www.w3.org/2000/svg">
<path d="M193.135 21.8782C208.283 10.9297 249.94 -6.8182 295.385 9.77728M367.921 112.635C369.378 146.056 351.142 215.319 266.545 225" stroke="white" stroke-width="4"/>
<path d="M270.041 46.9443C284.024 46.9443 304.124 56.5896 309.368 72.0104" stroke="white" stroke-width="4"/>
<path d="M324.225 115.365C326.846 143.024 312.514 179.535 258.68 184.375C248.945 184.536 228.369 184.375 218.479 174.141M235.957 49.5371C224.454 51.3174 214.983 57.4537 209.018 63.5042" stroke="white" stroke-width="4"/>
<path d="M210.613 34.1164C229.839 23.0174 277.906 11.1601 312.863 40.8937C356.56 78.0606 348.694 119.549 349.568 128.193M270.04 206.849C262.175 211.308 219.352 216.494 201.484 190.563M319.855 182.647C324.515 178.901 334.711 169.336 338.207 161.038M253.163 77.4352C263.602 73.5175 288.245 80.0469 292.311 99.6352C295.023 112.694 293.636 130.197 281.401 139.567C260.992 155.197 237.503 147.953 233.588 141.13" stroke="white" stroke-width="4"/>
<path d="M27.4 91.448L27.4 97.448L41.176 97.448L41.176 125.048L47.176 125.048L47.176 97.448L60.952 97.448L60.952 91.448L27.4 91.448ZM71.7906 125L71.7906 91.4L65.7906 91.4L65.7906 125L71.7906 125ZM110.172 91.4L101.292 91.4L91.9319 99.992L87.4679 104.072L82.5239 108.584L82.5239 91.4L76.5239 91.4L76.5239 125L82.5239 125L82.5239 116.696L91.0199 108.968L102.636 125L110.028 125L95.4839 104.888L110.172 91.4Z" fill="white"/>
<path d="M139.4 43.448V49.448H153.176V77.048H159.176V49.448H172.952V43.448H139.4ZM168.68 119L154.616 91.4L140.552 119L137.48 125H144.2L147.272 119L154.616 104.6L161.96 119L165.032 125H171.752L168.68 119ZM173 139.4H164.12L154.76 147.992L150.296 152.072L145.352 156.584V139.4H139.352V173H145.352V164.696L153.848 156.968L165.464 173H172.856L158.312 152.888L173 139.4Z" fill="white"/>
<path d="M116.696 110.48C116.696 108.336 117.208 106.816 118.232 105.92C119.256 104.992 120.52 104.528 122.024 104.528C123.496 104.528 124.744 104.992 125.768 105.92C126.824 106.816 127.352 108.336 127.352 110.48C127.352 112.592 126.824 114.112 125.768 115.04C124.744 115.968 123.496 116.432 122.024 116.432C120.52 116.432 119.256 115.968 118.232 115.04C117.208 114.112 116.696 112.592 116.696 110.48Z" fill="white"/>
</svg>
